<?xml version="1.0" standalone="no"?><!DOCTYPE svg PUBLIC "-//W3C//DTD SVG 1.1//EN" "http://www.w3.org/Graphics/SVG/1.1/DTD/svg11.dtd"><svg xmlns:xlink="http://www.w3.org/1999/xlink" version="1.1" class="highcharts-root" style="font-family: Roboto, sans-serif; font-size: 12px;" xmlns="http://www.w3.org/2000/svg" width="600" height="400" viewBox="0 0 600 400" role="img" aria-label=""><desc>Created with Highcharts 10.3.2</desc><defs><clipPath id="highcharts-5qtxyor-6-"><rect x="0" y="0" width="580" height="375" fill="none"></rect></clipPath><clipPath id="highcharts-5qtxyor-7-"><rect x="0" y="0" width="580" height="375" fill="none"></rect></clipPath></defs><rect fill="#ffffff" class="highcharts-background" x="0" y="0" width="600" height="400" rx="0" ry="0"></rect><rect fill="none" class="highcharts-plot-background" x="10" y="10" width="580" height="375"></rect><g class="highcharts-grid highcharts-xaxis-grid" data-z-index="1"></g><g class="highcharts-grid highcharts-yaxis-grid" data-z-index="1"></g><rect fill="none" class="highcharts-plot-border" data-z-index="1" stroke="#606063" stroke-width="0" x="10" y="10" width="580" height="375"></rect><g class="highcharts-axis highcharts-xaxis" data-z-index="2"><path fill="none" class="highcharts-axis-line" stroke="#ccd6eb" stroke-width="0" data-z-index="7" d="M 10 385 L 590 385"></path></g><g class="highcharts-axis highcharts-yaxis" data-z-index="2"><path fill="none" class="highcharts-axis-line" stroke="#ccd6eb" stroke-width="0" data-z-index="7" d="M 10 10 L 10 385"></path></g><g class="highcharts-series-group" data-z-index="3"><g class="highcharts-series highcharts-series-0 highcharts-sunburst-series highcharts-color-0" data-z-index="0.1" transform="translate(10,10) scale(1 1)" clip-path="url(#highcharts-5qtxyor-7-)"><path fill="#71b171" d="M 290 98.75 A 88.75 88.75 0 1 1 289.9112500147916 98.7500443749963 M 290 187.5 A 0 0 0 1 0 290 187.5" stroke="#e6e6e6" stroke-width="1" opacity="1" class="highcharts-point highcharts-color-0" radius="88.75" plotX="290" plotY="187.5"></path><path fill="#505160" d="M 290 10 A 177.5 177.5 0 0 1 437.16134334193515 286.74610332802536 L 363.5806716709676 237.12305166401268 A 88.75 88.75 0 0 0 290 98.75 Z" stroke="#e6e6e6" stroke-width="1" opacity="1" class="highcharts-point highcharts-color-1" radius="88.75" plotX="407.5713760605272" plotY="128.5887890176335"></path><path fill="#e6d72a" d="M 437.0620236744826 286.89321502379283 A 177.5 177.5 0 0 1 359.81739299561394 350.6924680715872 L 324.908696497807 269.0962340357936 A 88.75 88.75 0 0 0 363.5310118372413 237.19660751189642 Z" stroke="#e6e6e6" stroke-width="1" opacity="1" class="highcharts-point highcharts-color-2" radius="88.75" plotX="374.7244052458996" plotY="292.7298896266955"></path><path fill="#68829E" d="M 359.65416564604755 350.76220385671934 A 177.5 177.5 0 0 1 304.9641251179321 364.36810045752986 L 297.48206255896605 275.93405022876493 A 88.75 88.75 0 0 0 324.8270828230238 269.13110192835967 Z" stroke="#e6e6e6" stroke-width="1" opacity="1" class="highcharts-point highcharts-color-3" radius="88.75" plotX="322.07483981966766" plotY="317.66696415630577"></path><path fill="#98dbc6" d="M 304.78724956489066 364.3829761461109 A 177.5 177.5 0 0 1 271.85054049625217 364.0696664767814 L 280.9252702481261 275.78483323839066 A 88.75 88.75 0 0 0 297.39362478244533 275.94148807305544 Z" stroke="#e6e6e6" stroke-width="1" opacity="1" class="highcharts-point highcharts-color-4" radius="88.75" plotX="288.6671495353621" plotY="320.65837565759506"></path><path fill="#f18d9e" d="M 271.6739799339327 364.05142873547663 A 177.5 177.5 0 0 1 242.6017203559484 358.5545324941268 L 266.3008601779742 273.0272662470634 A 88.75 88.75 0 0 0 280.8369899669663 275.7757143677383 Z" stroke="#e6e6e6" stroke-width="1" opacity="1" class="highcharts-point highcharts-color-5" radius="88.75" plotX="265.20193662949146" plotY="319.0400665754484"></path><path fill="#aebd38" d="M 242.43068955110124 358.50704869512333 A 177.5 177.5 0 0 1 219.98385717688615 350.60729518992497 L 254.99192858844307 269.0536475949625 A 88.75 88.75 0 0 0 266.21534477555065 273.00352434756167 Z" stroke="#e6e6e6" stroke-width="1" opacity="1" class="highcharts-point highcharts-color-6" radius="88.75" plotX="245.7432730860944" plotY="314.382986428263"></path><path fill="#324851" d="M 219.8207849169493 350.5371975051304 A 177.5 177.5 0 0 1 200.63718386471152 340.8640671486337 L 245.31859193235576 264.18203357431685 A 88.75 88.75 0 0 0 254.91039245847463 269.0185987525652 Z" stroke="#e6e6e6" stroke-width="1" opacity="1" class="highcharts-point highcharts-color-7" radius="88.75" plotX="230.00244602688184" plotY="308.1411174363903"></path><path fill="#5bc8ac" d="M 200.4838645045279 340.774627665365 A 177.5 177.5 0 0 1 183.0008235624948 329.1242431284123 L 236.5004117812474 258.3121215642061 A 88.75 88.75 0 0 0 245.24193225226395 264.1373138326825 Z" stroke="#e6e6e6" stroke-width="1" opacity="1" class="highcharts-point highcharts-color-8" radius="88.75" plotX="216.12198556474036" plotY="300.46412976864383"></path><path fill="#86ac41" d="M 182.85925284255418 329.0171731576923 A 177.5 177.5 0 0 1 167.1634812253168 315.6305570709692 L 228.5817406126584 251.5652785354846 A 88.75 88.75 0 0 0 236.42962642127708 258.2585865788461 Z" stroke="#e6e6e6" stroke-width="1" opacity="1" class="highcharts-point highcharts-color-9" radius="88.75" plotX="203.56191248159888" plotY="291.3430532651073"></path><path fill="#7da3a1" d="M 167.03541210785517 315.50765650739413 A 177.5 177.5 0 0 1 156.65397024097652 304.65411366019384 L 223.32698512048825 246.07705683009692 A 88.75 88.75 0 0 0 228.51770605392758 251.50382825369707 Z" stroke="#e6e6e6" stroke-width="1" opacity="1" class="highcharts-point highcharts-color-10" radius="88.75" plotX="193.75138568508766" plotY="282.3619171646959"></path><path fill="#71b171" d="M 156.53688281985134 304.5207090756072 A 177.5 177.5 0 0 1 147.91672477544054 293.88887583512707 L 218.95836238772029 240.69443791756353 A 88.75 88.75 0 0 0 223.26844140992569 246.0103545378036 Z" stroke="#e6e6e6" stroke-width="1" opacity="1" class="highcharts-point highcharts-color-0" radius="88.75" plotX="186.55130682345936" plotY="274.3975382387852"></path><path fill="#505160" d="M 147.8104069589686 293.7467393891496 A 177.5 177.5 0 0 1 140.16535552129994 282.66212121396603 L 215.08267776064997 235.08106060698302 A 88.75 88.75 0 0 0 218.9052034794843 240.6233696945748 Z" stroke="#e6e6e6" stroke-width="1" opacity="1" class="highcharts-point highcharts-color-1" radius="88.75" plotX="180.37427132527375" plotY="266.32182892958514"></path><path fill="#e6d72a" d="M 140.07026833326236 282.51223901340313 A 177.5 177.5 0 0 1 134.5229304654181 273.13370159545127 L 212.26146523270904 230.31685079772564 A 88.75 88.75 0 0 0 215.03513416663117 235.00611950670157 Z" stroke="#e6e6e6" stroke-width="1" opacity="1" class="highcharts-point highcharts-color-2" radius="88.75" plotX="175.38458963724247" plotY="258.66070482320055"></path><path fill="#68829E" d="M 134.43737451662327 272.9781817349823 A 177.5 177.5 0 0 1 130.05915157714412 264.4751583679893 L 210.02957578857206 225.98757918399465 A 88.75 88.75 0 0 0 212.21868725831163 230.23909086749114 Z" stroke="#e6e6e6" stroke-width="1" opacity="1" class="highcharts-point highcharts-color-3" radius="88.75" plotX="171.61278094452857" plotY="251.9401114235509"></path><path fill="#98dbc6" d="M 129.98225640202287 264.3151790586473 A 177.5 177.5 0 0 1 126.24804150949305 255.9948617819124 L 208.12402075474654 221.7474308909562 A 88.75 88.75 0 0 0 209.99112820101143 225.90758952932364 Z" stroke="#e6e6e6" stroke-width="1" opacity="1" class="highcharts-point highcharts-color-4" radius="88.75" plotX="168.519038077831" plotY="245.5986538905804"></path><path fill="#f18d9e" d="M 126.17962853509937 255.83107560328588 A 177.5 177.5 0 0 1 123.77009636839259 249.74041403000552 L 206.8850481841963 218.62020701500276 A 88.75 88.75 0 0 0 208.08981426754968 221.66553780164293 Z" stroke="#e6e6e6" stroke-width="1" opacity="1" class="highcharts-point highcharts-color-5" radius="88.75" plotX="166.18560363277538" plotY="240.130988759023"></path><path fill="#aebd38" d="M 123.70793907968087 249.5741530338745 A 177.5 177.5 0 0 1 121.85349210159643 244.35949244912496 L 205.92674605079822 215.92974622456248 A 88.75 88.75 0 0 0 206.85396953984042 218.53707651693725 Z" stroke="#e6e6e6" stroke-width="1" opacity="1" class="highcharts-point highcharts-color-6" radius="88.75" plotX="164.54800519370667" plotY="235.81226748281497"></path><path fill="#324851" d="M 121.79671669187081 244.19131753950714 A 177.5 177.5 0 0 1 120.15705365322151 239.07153843202 L 205.07852682661076 213.28576921601 A 88.75 88.75 0 0 0 205.8983583459354 215.84565876975358 Z" stroke="#e6e6e6" stroke-width="1" opacity="1" class="highcharts-point highcharts-color-7" radius="88.75" plotX="163.19784017959154" plotY="231.84984885356317"></path><path fill="#5bc8ac" d="M 120.10556704485083 238.90166972821334 A 177.5 177.5 0 0 1 118.8268289554602 234.46802651332843 L 204.4134144777301 210.9840132566642 A 88.75 88.75 0 0 0 205.05278352242541 213.20083486410667 Z" stroke="#e6e6e6" stroke-width="1" opacity="1" class="highcharts-point highcharts-color-8" radius="88.75" plotX="162.07041263890414" plotY="228.17168623457033"></path><path fill="#86ac41" d="M 118.77994652335326 234.29682988680148 A 177.5 177.5 0 0 1 117.85087990262406 230.75425354458486 L 203.92543995131203 209.12712677229243 A 88.75 88.75 0 0 0 204.38997326167663 210.89841494340072 Z" stroke="#e6e6e6" stroke-width="1" opacity="1" class="highcharts-point highcharts-color-9" radius="88.75" plotX="161.21283774906172" plotY="225.07622532686676"></path><path fill="#7da3a1" d="M 117.80771173084139 230.58208282605406 A 177.5 177.5 0 0 1 117.09074292385176 227.60783984926738 L 203.54537146192587 207.5539199246337 A 88.75 88.75 0 0 0 203.9038558654207 209.04104141302702 Z" stroke="#e6e6e6" stroke-width="1" opacity="1" class="highcharts-point highcharts-color-10" radius="88.75" plotX="160.56653181288988" plotY="222.52174746964243"></path><path fill="#71b171" d="M 117.05072154530848 227.4349105670912 A 177.5 177.5 0 0 1 116.44778666739174 224.72739914838036 L 203.22389333369586 206.11369957419018 A 88.75 88.75 0 0 0 203.52536077265424 207.4674552835456 Z" stroke="#e6e6e6" stroke-width="1" opacity="1" class="highcharts-point highcharts-color-0" radius="88.75" plotX="160.043521741323" plotY="220.2765704514855"></path><path fill="#505160" d="M 116.41064605054734 224.5538283502751 A 177.5 177.5 0 0 1 115.86510045753172 221.89893546804146 L 202.93255022876588 204.69946773402071 A 88.75 88.75 0 0 0 203.20532302527369 206.02691417513756 Z" stroke="#e6e6e6" stroke-width="1" opacity="1" class="highcharts-point highcharts-color-1" radius="88.75" plotX="159.58622284166418" plotY="218.14889989118214"></path><path fill="#e6d72a" d="M 115.83078859523937 221.7247833980552 A 177.5 177.5 0 0 1 115.35112387611494 219.1862757146346 L 202.67556193805746 203.34313785731732 A 88.75 88.75 0 0 0 202.91539429761968 204.6123916990276 Z" stroke="#e6e6e6" stroke-width="1" opacity="1" class="highcharts-point highcharts-color-2" radius="88.75" plotX="159.17741107227843" plotY="216.08271303514292"></path><path fill="#68829E" d="M 115.31952493011212 219.01161102448236 A 177.5 177.5 0 0 1 114.96297939189904 216.96678497290185 L 202.4814896959495 202.23339248645092 A 88.75 88.75 0 0 0 202.65976246505608 203.25580551224118 Z" stroke="#e6e6e6" stroke-width="1" opacity="1" class="highcharts-point highcharts-color-3" radius="88.75" plotX="158.84228009008726" plotY="214.24260261605454"></path><path fill="#98dbc6" d="M 114.93360013034027 216.79173324807533 A 177.5 177.5 0 0 1 114.63236463217729 214.93068474351992 L 202.31618231608866 201.21534237175996 A 88.75 88.75 0 0 0 202.46680006517013 202.14586662403767 Z" stroke="#e6e6e6" stroke-width="1" opacity="1" class="highcharts-point highcharts-color-4" radius="88.75" plotX="158.5747644737692" plotY="212.65442400191716"></path><path fill="#f18d9e" d="M 114.60502163581594 214.75530342203882 A 177.5 177.5 0 0 1 114.3254337792475 212.89087992075997 L 202.16271688962377 200.19543996037999 A 88.75 88.75 0 0 0 202.30251081790797 201.1276517110194 Z" stroke="#e6e6e6" stroke-width="1" opacity="1" class="highcharts-point highcharts-color-5" radius="88.75" plotX="158.3372094423588" plotY="211.1328332881726"></path><path fill="#aebd38" d="M 114.30013074083439 212.71519268837943 A 177.5 177.5 0 0 1 114.0589704986302 210.97347733076876 L 202.0294852493151 199.2367386653844 A 88.75 88.75 0 0 0 202.1500653704172 200.10759634418972 Z" stroke="#e6e6e6" stroke-width="1" opacity="1" class="highcharts-point highcharts-color-6" radius="88.75" plotX="158.12393267629864" plotY="209.65501285072105"></path><path fill="#324851" d="M 114.03558499571906 210.7975245938532 A 177.5 177.5 0 0 1 113.82115234959917 209.11628183978118 L 201.9105761747996 198.30814091989058 A 88.75 88.75 0 0 0 202.01779249785955 199.1487622969266 Z" stroke="#e6e6e6" stroke-width="1" opacity="1" class="highcharts-point highcharts-color-7" radius="88.75" plotX="157.93636656401776" plotY="208.24494882499567"></path><path fill="#5bc8ac" d="M 113.79962416077859 208.94009221335392 A 177.5 177.5 0 0 1 113.61356001153987 207.35129185210258 L 201.80678000576995 197.4256459260513 A 88.75 88.75 0 0 0 201.8998120803893 198.22004610667696 Z" stroke="#e6e6e6" stroke-width="1" opacity="1" class="highcharts-point highcharts-color-8" radius="88.75" plotX="157.7708760112925" plotY="206.8913952568708"></path><path fill="#86ac41" d="M 113.59379691620896 207.17489551586678 A 177.5 177.5 0 0 1 113.42688529738774 205.61588154681235 L 201.71344264869387 196.5579407734062 A 88.75 88.75 0 0 0 201.79689845810447 197.33744775793338 Z" stroke="#e6e6e6" stroke-width="1" opacity="1" class="highcharts-point highcharts-color-9" radius="88.75" plotX="157.62439546629784" plotY="205.5829765402669"></path><path fill="#7da3a1" d="M 113.40885770541024 205.4392994035986 A 177.5 177.5 0 0 1 113.27199661948464 204.03671131563192 L 201.63599830974232 195.76835565781596 A 88.75 88.75 0 0 0 201.70442885270512 196.4696497017993 Z" stroke="#e6e6e6" stroke-width="1" opacity="1" class="highcharts-point highcharts-color-10" radius="88.75" plotX="157.49782864991653" plotY="204.34364231342346"></path><path fill="#71b171" d="M 113.25554827491945 203.8599750733511 A 177.5 177.5 0 0 1 113.1419721283659 202.58270457697455 L 201.57098606418293 195.04135228848727 A 88.75 88.75 0 0 0 201.6277741374597 195.67998753667555 Z" stroke="#e6e6e6" stroke-width="1" opacity="1" class="highcharts-point highcharts-color-0" radius="88.75" plotX="157.39232611767136" plotY="203.20923535185753"></path><path fill="#505160" d="M 113.12697785530926 202.40583903722762 A 177.5 177.5 0 0 1 113.04358294869095 201.38079480300692 L 201.5217914743455 194.44039740150345 A 88.75 88.75 0 0 0 201.56348892765465 194.9529195186138 Z" stroke="#e6e6e6" stroke-width="1" opacity="1" class="highcharts-point highcharts-color-1" radius="88.75" plotX="157.3080225808184" plotY="202.21567733709685"></path><path fill="#e6d72a" d="M 113.02979063440256 201.20383147505154 A 177.5 177.5 0 0 1 112.96247393669157 200.3048571012484 L 201.4812369683458 193.9024285506242 A 88.75 88.75 0 0 0 201.51489531720128 194.35191573752576 Z" stroke="#e6e6e6" stroke-width="1" opacity="1" class="highcharts-point highcharts-color-2" radius="88.75" plotX="157.24171737528306" plotY="201.3633936260375"></path><path fill="#68829E" d="M 112.94975760048013 200.12781320226333 A 177.5 177.5 0 0 1 112.89000657374842 199.26011175767985 L 201.44500328687423 193.38005587883993 A 88.75 88.75 0 0 0 201.47487880024005 193.81390660113166 Z" stroke="#e6e6e6" stroke-width="1" opacity="1" class="highcharts-point highcharts-color-3" radius="88.75" plotX="157.18495681335642" plotY="200.5697796680424"></path><path fill="#98dbc6" d="M 112.8783350189401 199.08299591371656 A 177.5 177.5 0 0 1 112.82370447594795 198.21495704022058 L 201.41185223797396 192.85747852011028 A 88.75 88.75 0 0 0 201.43916750947005 193.29149795685828 Z" stroke="#e6e6e6" stroke-width="1" opacity="1" class="highcharts-point highcharts-color-4" radius="88.75" plotX="157.13370178096275" plotY="199.7875521453727"></path><path fill="#f18d9e" d="M 112.81307810883393 198.03777541674785 A 177.5 177.5 0 0 1 112.76878181127984 197.26449176057145 L 201.38439090563992 192.38224588028572 A 88.75 88.75 0 0 0 201.40653905441695 192.76888770837394 Z" stroke="#e6e6e6" stroke-width="1" opacity="1" class="highcharts-point highcharts-color-5" radius="88.75" plotX="157.08909105334112" plotY="199.04048102170304"></path><path fill="#aebd38" d="M 112.7591059367484 197.0872556896758 A 177.5 177.5 0 0 1 112.7205365321937 196.34544134380755 L 201.36026826609685 191.9227206719038 A 88.75 88.75 0 0 0 201.37955296837418 192.2936278448379 Z" stroke="#e6e6e6" stroke-width="1" opacity="1" class="highcharts-point highcharts-color-6" radius="88.75" plotX="157.051135367663" plotY="198.34051061548965"></path><path fill="#324851" d="M 112.71177973204851 196.16815748716604 A 177.5 177.5 0 0 1 112.67847699381079 195.45785641774953 L 201.3392384969054 191.47892820887478 A 88.75 88.75 0 0 0 201.35588986602426 191.834078743583 Z" stroke="#e6e6e6" stroke-width="1" opacity="1" class="highcharts-point highcharts-color-7" radius="88.75" plotX="157.01797874198533" plotY="197.66398141020258"></path><path fill="#5bc8ac" d="M 112.67060779947349 195.28053094536907 A 177.5 177.5 0 0 1 112.64212818465074 194.60178182783352 L 201.32106409232537 191.05089091391676 A 88.75 88.75 0 0 0 201.33530389973674 191.39026547268455 Z" stroke="#e6e6e6" stroke-width="1" opacity="1" class="highcharts-point highcharts-color-8" radius="88.75" plotX="156.9892586394221" plotY="197.01093970667137"></path><path fill="#86ac41" d="M 112.63511508293507 194.42442043468722 A 177.5 177.5 0 0 1 112.60991231668098 193.74554174626866 L 201.30495615834047 190.62277087313433 A 88.75 88.75 0 0 0 201.31755754146752 190.9622102173436 Z" stroke="#e6e6e6" stroke-width="1" opacity="1" class="highcharts-point highcharts-color-9" radius="88.75" plotX="156.96418894322457" plotY="196.36954771156397"></path><path fill="#7da3a1" d="M 112.60375547101208 193.56814856537977 A 177.5 177.5 0 0 1 112.58376852785375 192.95259664947068 L 201.29188426392687 190.22629832473535 A 88.75 88.75 0 0 0 201.30187773550603 190.5340742826899 Z" stroke="#e6e6e6" stroke-width="1" opacity="1" class="highcharts-point highcharts-color-10" radius="88.75" plotX="156.94297775748961" plotY="195.75171545626418"></path><path fill="#71b171" d="M 112.57840464022138 192.77517772126984 A 177.5 177.5 0 0 1 112.56200514825329 192.19126667239334 L 201.28100257412666 189.84563333619667 A 88.75 88.75 0 0 0 201.2892023201107 190.1375888606349 Z" stroke="#e6e6e6" stroke-width="1" opacity="1" class="highcharts-point highcharts-color-0" radius="88.75" plotX="156.9256214424946" plotY="195.16936395977172"></path><path fill="#505160" d="M 112.5574026013528 192.01382636148148 A 177.5 177.5 0 0 1 112.54492535275048 191.49330463890544 L 201.27246267637526 189.49665231945272 A 88.75 88.75 0 0 0 201.2787013006764 189.75691318074072 Z" stroke="#e6e6e6" stroke-width="1" opacity="1" class="highcharts-point highcharts-color-1" radius="88.75" plotX="156.91165138511352" plotY="194.6225325130642"></path><path fill="#e6d72a" d="M 112.54102077630705 191.3158475971819 A 177.5 177.5 0 0 1 112.53118301510008 190.82701036669442 L 201.26559150755003 189.1635051833472 A 88.75 88.75 0 0 0 201.27051038815353 189.40792379859096 Z" stroke="#e6e6e6" stroke-width="1" opacity="1" class="highcharts-point highcharts-color-2" radius="88.75" plotX="156.90062753409674" plotY="194.11125489081724"></path><path fill="#68829E" d="M 112.52794473968899 190.6495399157826 A 177.5 177.5 0 0 1 112.5204209529071 190.19240065122227 L 201.26021047645355 188.84620032561114 A 88.75 88.75 0 0 0 201.2639723698445 189.0747699578913 Z" stroke="#e6e6e6" stroke-width="1" opacity="1" class="highcharts-point highcharts-color-3" radius="88.75" plotX="156.89194801857172" plotY="193.6236665355334"></path><path fill="#98dbc6" d="M 112.51781729248674 190.01491975555493 A 177.5 177.5 0 0 1 112.51192818066659 189.55775651016847 L 201.2559640903333 188.52887825508424 A 88.75 88.75 0 0 0 201.25890864624336 188.75745987777745 Z" stroke="#e6e6e6" stroke-width="1" opacity="1" class="highcharts-point highcharts-color-4" radius="88.75" plotX="156.88520341860655" plotY="193.14789125066193"></path><path fill="#f18d9e" d="M 112.5099591685279 189.38026743905232 A 177.5 177.5 0 0 1 112.5062250189089 188.9865540561307 L 201.25311250945447 188.24327702806536 A 88.75 88.75 0 0 0 201.25497958426394 188.44013371952616 Z" stroke="#e6e6e6" stroke-width="1" opacity="1" class="highcharts-point highcharts-color-5" radius="88.75" plotX="156.88037255546604" plotY="192.6958377468891"></path><path fill="#aebd38" d="M 112.50482721198063 188.80905956745497 A 177.5 177.5 0 0 1 112.50236012940965 188.41533620611028 L 201.25118006470484 187.95766810305514 A 88.75 88.75 0 0 0 201.2524136059903 188.15452978372747 Z" stroke="#e6e6e6" stroke-width="1" opacity="1" class="highcharts-point highcharts-color-6" radius="88.75" plotX="156.87721294149088" plotY="192.26752114118702"></path><path fill="#324851" d="M 112.50153354216863 188.2378381381546 A 177.5 177.5 0 0 1 112.50033355219682 187.84410887611145 L 201.2501667760984 187.6720544380557 A 88.75 88.75 0 0 0 201.25076677108433 187.8689190690773 Z" stroke="#e6e6e6" stroke-width="1" opacity="1" class="highcharts-point highcharts-color-7" radius="88.75" plotX="156.87543205714405" plotY="191.83915515909496"></path><path fill="#5bc8ac" d="M 112.5000781932039 187.66660906719252 A 177.5 177.5 0 0 1 112.50007544213719 187.33634807360045 L 201.2500377210686 187.41817403680022 A 88.75 88.75 0 0 0 201.25003909660194 187.58330453359625 Z" stroke="#e6e6e6" stroke-width="1" opacity="1" class="highcharts-point highcharts-color-8" radius="88.75" plotX="156.8750160907792" plotY="191.43454594743562"></path><path fill="#86ac41" d="M 112.50032784399119 187.1588482604519 A 177.5 177.5 0 0 1 112.50126984469509 186.8285886102815 L 201.25063492234756 187.16429430514077 A 88.75 88.75 0 0 0 201.25016392199558 187.32942413022596 Z" stroke="#e6e6e6" stroke-width="1" opacity="1" class="highcharts-point highcharts-color-9" radius="88.75" plotX="156.8757480210754" plotY="191.05370400745753"></path><path fill="#7da3a1" d="M 112.50203000533057 186.65109024541502 A 177.5 177.5 0 0 1 112.50370876506469 186.35256902472096 L 201.25185438253234 186.9262845123605 A 88.75 88.75 0 0 0 201.25101500266527 187.07554512270752 Z" stroke="#e6e6e6" stroke-width="1" opacity="1" class="highcharts-point highcharts-color-10" radius="88.75" plotX="156.87749592477178" plotY="190.68473561552167"></path><path fill="#71b171" d="M 112.50494494398697 186.1750733367842 A 177.5 177.5 0 0 1 112.50742428182573 185.8765576917624 L 201.25371214091285 186.6882788458812 A 88.75 88.75 0 0 0 201.25247247199349 186.83753666839212 Z" stroke="#e6e6e6" stroke-width="1" opacity="1" class="highcharts-point highcharts-color-0" radius="88.75" plotX="156.8801608514726" plotY="190.32764611361893"></path><path fill="#505160" d="M 112.50913647014386 185.69906595734741 A 177.5 177.5 0 0 1 112.51167700056999 185.46402385819462 L 201.255838500285 186.48201192909733 A 88.75 88.75 0 0 0 201.25456823507193 186.59953297867372 Z" stroke="#e6e6e6" stroke-width="1" opacity="1" class="highcharts-point highcharts-color-1" radius="88.75" plotX="156.88351193166463" plotY="189.99434417841638"></path><path fill="#e6d72a" d="M 112.51380172052654 185.2865365827646 A 177.5 177.5 0 0 1 112.51688854214544 185.05150102332453 L 201.25844427107273 186.27575051166227 A 88.75 88.75 0 0 0 201.25690086026327 186.3932682913823 Z" stroke="#e6e6e6" stroke-width="1" opacity="1" class="highcharts-point highcharts-color-2" radius="88.75" plotX="156.88737042631462" plotY="189.68483548663352"></path><path fill="#68829E" d="M 112.51942578226237 184.8740191656966 A 177.5 177.5 0 0 1 112.52204719041919 184.70245348203053 L 201.2610235952096 186.10122674101527 A 88.75 88.75 0 0 0 201.2597128911312 186.1870095828483 Z" stroke="#e6e6e6" stroke-width="1" opacity="1" class="highcharts-point highcharts-color-3" radius="88.75" plotX="156.89157036653683" plotY="189.39912464179082"></path><path fill="#98dbc6" d="M 112.5249334754399 184.52497695757376 A 177.5 177.5 0 0 1 112.52733255484043 184.3851468895307 L 201.2636662774202 185.94257344476534 A 88.75 88.75 0 0 0 201.26246673771993 186.01248847878688 Z" stroke="#e6e6e6" stroke-width="1" opacity="1" class="highcharts-point highcharts-color-4" radius="88.75" plotX="156.8957479228334" plotY="189.14912043664322"></path><path fill="#f18d9e" d="M 112.5305361437581 184.20767580909077 A 177.5 177.5 0 0 1 112.53318522010986 184.067850253825 L 201.26659261005494 185.7839251269125 A 88.75 88.75 0 0 0 201.26526807187906 185.85383790454537 Z" stroke="#e6e6e6" stroke-width="1" opacity="1" class="highcharts-point highcharts-color-5" radius="88.75" plotX="156.90016265981393" plotY="188.91101577735435"></path><path fill="#aebd38" d="M 112.53670610268401 183.89038518469766 A 177.5 177.5 0 0 1 112.53893764565257 183.78229263303183 L 201.2694688228263 185.64114631651591 A 88.75 88.75 0 0 0 201.268353051342 185.69519259234883 Z" stroke="#e6e6e6" stroke-width="1" opacity="1" class="highcharts-point highcharts-color-6" radius="88.75" plotX="156.9047507431798" plotY="188.68481216153387"></path><path fill="#324851" d="M 112.54274408292369 183.60483345910788 A 177.5 177.5 0 0 1 112.54514955485752 183.4967446381576 L 201.27257477742876 185.4983723190788 A 88.75 88.75 0 0 0 201.27137204146186 185.55241672955395 Z" stroke="#e6e6e6" stroke-width="1" opacity="1" class="highcharts-point highcharts-color-7" radius="88.75" plotX="156.90945153255845" plotY="188.47051083567683"></path><path fill="#5bc8ac" d="M 112.54924153696999 183.3192918189158 A 177.5 177.5 0 0 1 112.55182093164086 183.2112070085455 L 201.27591046582043 185.35560350427275 A 88.75 88.75 0 0 0 201.274620768485 185.4096459094579 Z" stroke="#e6e6e6" stroke-width="1" opacity="1" class="highcharts-point highcharts-color-8" radius="88.75" plotX="156.91449692109487" plotY="188.25620699696503"></path><path fill="#86ac41" d="M 112.55619844799966 183.03376100344818 A 177.5 177.5 0 0 1 112.55813675626791 182.95740508159915 L 201.27906837813396 185.2287025407996 A 88.75 88.75 0 0 0 201.27809922399985 185.2668805017241 Z" stroke="#e6e6e6" stroke-width="1" opacity="1" class="highcharts-point highcharts-color-9" radius="88.75" plotX="156.91957841285648" plotY="188.05380711980123"></path><path fill="#7da3a1" d="M 112.56276807135345 182.77996551922635 A 177.5 177.5 0 0 1 112.56481559045358 182.70361244786773 L 201.2824077952268 185.10180622393386 A 88.75 88.75 0 0 0 201.28138403567672 185.13998275961316 Z" stroke="#e6e6e6" stroke-width="1" opacity="1" class="highcharts-point highcharts-color-10" radius="88.75" plotX="156.92464175669812" plotY="187.86331194101098"></path><path fill="#71b171" d="M 112.56970069479112 182.5261796912243 A 177.5 177.5 0 0 1 112.57185742053429 182.4498296265588 L 201.28592871026714 184.9749148132794 A 88.75 88.75 0 0 0 201.28485034739555 185.01308984561214 Z" stroke="#e6e6e6" stroke-width="1" opacity="1" class="highcharts-point highcharts-color-0" radius="88.75" plotX="156.92997734535373" plotY="187.6728160189593"></path><path fill="#505160" d="M 112.57699630412992 182.2724040386357 A 177.5 177.5 0 0 1 112.57926223210393 182.19605713685982 L 201.28963111605196 184.8480285684299 A 88.75 88.75 0 0 0 201.28849815206496 184.88620201931784 Z" stroke="#e6e6e6" stroke-width="1" opacity="1" class="highcharts-point highcharts-color-1" radius="88.75" plotX="156.93558516790782" plotY="187.48231974336147"></path><path fill="#e6d72a" d="M 112.58465488444457 182.01863908063325 A 177.5 177.5 0 0 1 112.58703001001379 181.94229549793707 L 201.2935150050069 184.72114774896855 A 88.75 88.75 0 0 0 201.2923274422223 184.75931954031662 Z" stroke="#e6e6e6" stroke-width="1" opacity="1" class="highcharts-point highcharts-color-2" radius="88.75" plotX="156.94146521288798" plotY="187.29182350393393"></path><path fill="#68829E" d="M 112.59267642006716 181.76488533636797 A 177.5 177.5 0 0 1 112.59412454903645 181.72026337302384 L 201.29706227451823 184.61013168651192 A 88.75 88.75 0 0 0 201.29633821003358 184.63244266818398 Z" stroke="#e6e6e6" stroke-width="1" opacity="1" class="highcharts-point highcharts-color-3" radius="88.75" plotX="156.9472249776251" plotY="187.11323365888802"></path><path fill="#98dbc6" d="M 112.59999298763049 181.5428604170086 A 177.5 177.5 0 0 1 112.60149696089545 181.49824030097767 L 201.30074848044774 184.49912015048884 A 88.75 88.75 0 0 0 201.29999649381523 184.5214302085043 Z" stroke="#e6e6e6" stroke-width="1" opacity="1" class="highcharts-point highcharts-color-4" radius="88.75" plotX="156.95281660325907" plotY="186.94655042450572"></path><path fill="#f18d9e" d="M 112.6075874188383 181.3208448283846 A 177.5 177.5 0 0 1 112.60914723404323 181.27622662955585 L 201.30457361702162 184.38811331477794 A 88.75 88.75 0 0 0 201.30379370941915 184.4104224141923 Z" stroke="#e6e6e6" stroke-width="1" opacity="1" class="highcharts-point highcharts-color-5" radius="88.75" plotX="156.95861662220648" plotY="186.77986805699788"></path><path fill="#aebd38" d="M 112.61545970179537 181.09883891824148 A 177.5 177.5 0 0 1 112.6159257568591 181.0859369426335 L 201.30796287842955 184.29296847131675 A 88.75 88.75 0 0 0 201.3077298508977 184.29941945912074 Z" stroke="#e6e6e6" stroke-width="1" opacity="1" class="highcharts-point highcharts-color-6" radius="88.75" plotX="156.9641889432246" plotY="186.62509257729386"></path><path fill="#324851" d="M 112.62242851087717 180.90855610498565 A 177.5 177.5 0 0 1 112.62290840606565 180.8956546367545 L 201.31145420303284 184.19782731837725 A 88.75 88.75 0 0 0 201.31121425543859 184.20427805249284 Z" stroke="#e6e6e6" stroke-width="1" opacity="1" class="highcharts-point highcharts-color-7" radius="88.75" plotX="156.9694920953891" plotY="186.48222394772202"></path><path fill="#5bc8ac" d="M 112.62960143886656 180.71828087689585 A 177.5 177.5 0 0 1 112.63009517362755 180.70537993088803 L 201.31504758681376 184.102689965444 A 88.75 88.75 0 0 0 201.31480071943326 184.10914043844792 Z" stroke="#e6e6e6" stroke-width="1" opacity="1" class="highcharts-point highcharts-color-8" radius="88.75" plotX="156.974948333661" plotY="186.33935648936554"></path><path fill="#86ac41" d="M 112.63697847750925 180.52801345293307 A 177.5 177.5 0 0 1 112.63624006437996 180.54682363953378 L 201.31812003219 184.0234118197669 A 88.75 88.75 0 0 0 201.31848923875464 184.01400672646653 Z" stroke="#e6e6e6" stroke-width="1" opacity="1" class="highcharts-point highcharts-color-9" radius="88.75" plotX="156.9800843619437" plotY="186.20839582183334"></path><path fill="#7da3a1" d="M 112.64328192145416 180.3694633857467 A 177.5 177.5 0 0 1 112.64252669334059 180.38827290473046 L 201.3212633466703 183.94413645236523 A 88.75 88.75 0 0 0 201.32164096072708 183.93473169287336 Z" stroke="#e6e6e6" stroke-width="1" opacity="1" class="highcharts-point highcharts-color-10" radius="88.75" plotX="156.98486509509775" plotY="186.08934174998043"></path><path fill="#71b171" d="M 112.64972709797982 180.21091901684665 A 177.5 177.5 0 0 1 112.64895505548552 180.22972785318203 L 201.32447752774277 183.864863926591 A 88.75 88.75 0 0 0 201.32486354898992 183.85545950842334 Z" stroke="#e6e6e6" stroke-width="1" opacity="1" class="highcharts-point highcharts-color-0" radius="88.75" plotX="156.9897521257665" plotY="185.97028880543897"></path><path fill="#505160" d="M 112.6563140019357 180.0523804729318 A 177.5 177.5 0 0 1 112.65552514567759 180.07118861158793 L 201.3277625728388 183.78559430579395 A 88.75 88.75 0 0 0 201.32815700096785 183.7761902364659 Z" stroke="#e6e6e6" stroke-width="1" opacity="1" class="highcharts-point highcharts-color-1" radius="88.75" plotX="156.99474545004455" plotY="185.85123708334848"></path><path fill="#e6d72a" d="M 112.6630426280579 179.8938478806964 A 177.5 177.5 0 0 1 112.6622369586664 179.91265530664296 L 201.3311184793332 183.7063276533215 A 88.75 88.75 0 0 0 201.33152131402895 183.6969239403482 Z" stroke="#e6e6e6" stroke-width="1" opacity="1" class="highcharts-point highcharts-color-2" radius="88.75" plotX="156.9998450639416" plotY="185.73218667884805"></path><path fill="#68829E" d="M 112.66991297096934 179.73532136682996 A 177.5 177.5 0 0 1 112.66909048908829 179.75412806503724 L 201.33454524454413 183.62706403251863 A 88.75 88.75 0 0 0 201.33495648548467 183.61766068341498 Z" stroke="#e6e6e6" stroke-width="1" opacity="1" class="highcharts-point highcharts-color-3" radius="88.75" plotX="157.00505096338227" plotY="185.61313768707515"></path><path fill="#98dbc6" d="M 112.67692502517966 179.57680105801714 A 177.5 177.5 0 0 1 112.67467534630094 179.62731072248948 L 201.33733767315047 183.56365536124474 A 88.75 88.75 0 0 0 201.33846251258984 183.53840052900858 Z" stroke="#e6e6e6" stroke-width="1" opacity="1" class="highcharts-point highcharts-color-4" radius="88.75" plotX="157.00982714358204" plotY="185.5059948809922"></path><path fill="#f18d9e" d="M 112.68263669692126 179.44998936373435 A 177.5 177.5 0 0 1 112.68035089631135 179.50049740641802 L 201.34017544815566 183.50024870320902 A 88.75 88.75 0 0 0 201.34131834846062 183.47499468186717 Z" stroke="#e6e6e6" stroke-width="1" opacity="1" class="highcharts-point highcharts-color-5" radius="88.75" plotX="157.01414490593652" plotY="185.41075791255503"></path><path fill="#aebd38" d="M 112.68843905738885 179.3231817866186 A 177.5 177.5 0 0 1 112.68611713621672 179.37368818168136 L 201.34305856810835 183.43684409084068 A 88.75 88.75 0 0 0 201.34421952869442 183.4115908933093 Z" stroke="#e6e6e6" stroke-width="1" opacity="1" class="highcharts-point highcharts-color-6" radius="88.75" plotX="157.01853068372696" plotY="185.31552201265777"></path><path fill="#324851" d="M 112.6943321036147 179.19637839152549 A 177.5 177.5 0 0 1 112.69197406306796 179.24688311313588 L 201.34598703153398 183.37344155656794 A 88.75 88.75 0 0 0 201.34716605180733 183.34818919576273 Z" stroke="#e6e6e6" stroke-width="1" opacity="1" class="highcharts-point highcharts-color-7" radius="88.75" plotX="157.0229844747102" plotY="185.22028723000895"></path><path fill="#5bc8ac" d="M 112.70031583258489 179.06957924330843 A 177.5 177.5 0 0 1 112.69792167386956 179.12008226563592 L 201.3489608369348 183.31004113281796 A 88.75 88.75 0 0 0 201.35015791629246 183.2847896216542 Z" stroke="#e6e6e6" stroke-width="1" opacity="1" class="highcharts-point highcharts-color-8" radius="88.75" plotX="157.02750627660842" plotY="185.125053613316"></path><path fill="#86ac41" d="M 112.70639024123906 178.94278440681865 A 177.5 177.5 0 0 1 112.70395996557963 178.99328570403353 L 201.35197998278983 183.24664285201678 A 88.75 88.75 0 0 0 201.35319512061955 183.22139220340932 Z" stroke="#e6e6e6" stroke-width="1" opacity="1" class="highcharts-point highcharts-color-9" radius="88.75" plotX="157.03209608710893" plotY="185.0298212112863"></path><path fill="#7da3a1" d="M 112.71255532647041 178.81599394690525 A 177.5 177.5 0 0 1 112.70854819185226 178.89819113446345 L 201.35427409592614 183.19909556723172 A 88.75 88.75 0 0 0 201.3562776632352 183.15799697345264 Z" stroke="#e6e6e6" stroke-width="1" opacity="1" class="highcharts-point highcharts-color-10" radius="88.75" plotX="157.03616795775886" plotY="184.94649389420337"></path><path fill="#71b171" d="M 112.71723864500268 178.72090401310797 A 177.5 177.5 0 0 1 112.71318742307969 178.80309903954662 L 201.35659371153986 183.1515495197733 A 88.75 88.75 0 0 0 201.35861932250134 183.11045200655397 Z" stroke="#e6e6e6" stroke-width="1" opacity="1" class="highcharts-point highcharts-color-0" radius="88.75" plotX="157.03969957270556" plotY="184.87507127416023"></path><path fill="#505160" d="M 112.72197296598958 178.62581660496764 A 177.5 177.5 0 0 1 112.71787765792732 178.70800944664012 L 201.35893882896366 183.10400472332006 A 88.75 88.75 0 0 0 201.3609864829948 183.06290830248383 Z" stroke="#e6e6e6" stroke-width="1" opacity="1" class="highcharts-point highcharts-color-1" radius="88.75" plotX="157.04326943898386" plotY="184.80364940928249"></path><path fill="#e6d72a" d="M 112.7267582880691 178.53073174984002 A 177.5 177.5 0 0 1 112.72261889504571 178.61292238310025 L 201.36130944752284 183.0564611915501 A 88.75 88.75 0 0 0 201.36337914403455 183.01536587492 Z" stroke="#e6e6e6" stroke-width="1" opacity="1" class="highcharts-point highcharts-color-2" radius="88.75" plotX="157.04687755556674" plotY="184.73222832011749"></path><path fill="#68829E" d="M 112.7315946098646 178.43564947507997 A 177.5 177.5 0 0 1 112.72741113307094 178.51783787628258 L 201.3637055665355 183.00891893814128 A 88.75 88.75 0 0 0 201.3657973049323 182.96782473753998 Z" stroke="#e6e6e6" stroke-width="1" opacity="1" class="highcharts-point highcharts-color-3" radius="88.75" plotX="157.05052392141621" plotY="184.66080802721237"></path><path fill="#98dbc6" d="M 112.73648192998468 178.34056980804178 A 177.5 177.5 0 0 1 112.7322543706243 178.42275595354198 L 201.36612718531217 182.961377976771 A 88.75 88.75 0 0 0 201.36824096499234 182.9202849040209 Z" stroke="#e6e6e6" stroke-width="1" opacity="1" class="highcharts-point highcharts-color-4" radius="88.75" plotX="157.0542085354832" plotY="184.58938855111398"></path><path fill="#f18d9e" d="M 112.74142024702334 178.2454927760789 A 177.5 177.5 0 0 1 112.73714860631245 178.32767664223252 L 201.3685743031562 182.91383832111626 A 88.75 88.75 0 0 0 201.37071012351169 182.87274638803945 Z" stroke="#e6e6e6" stroke-width="1" opacity="1" class="highcharts-point highcharts-color-5" radius="88.75" plotX="157.05793139670777" plotY="184.5179699123691"></path><path fill="#aebd38" d="M 112.74640955955982 178.15041840654396 A 177.5 177.5 0 0 1 112.74209383872736 178.2325999697076 L 201.37104691936366 182.8662999848538 A 88.75 88.75 0 0 0 201.3732047797799 182.82520920327198 Z" stroke="#e6e6e6" stroke-width="1" opacity="1" class="highcharts-point highcharts-color-6" radius="88.75" plotX="157.06169250401882" plotY="184.44655213152402"></path><path fill="#324851" d="M 112.75144986615877 178.05534672678897 A 177.5 177.5 0 0 1 112.74709006644633 178.13752596331977 L 201.37354503322317 182.8187629816599 A 88.75 88.75 0 0 0 201.37572493307937 182.77767336339448 Z" stroke="#e6e6e6" stroke-width="1" opacity="1" class="highcharts-point highcharts-color-7" radius="88.75" plotX="157.06549185633435" plotY="184.375135229125"></path><path fill="#5bc8ac" d="M 112.75654116537018 177.96027776416503 A 177.5 177.5 0 0 1 112.752137288032 178.04245465042092 L 201.37606864401602 182.77122732521045 A 88.75 88.75 0 0 0 201.3782705826851 182.7301388820825 Z" stroke="#e6e6e6" stroke-width="1" opacity="1" class="highcharts-point highcharts-color-8" radius="88.75" plotX="157.0693294525613" plotY="184.30371922571786"></path><path fill="#86ac41" d="M 112.7616834557293 177.86521154602255 A 177.5 177.5 0 0 1 112.75723550203236 177.94738605836204 L 201.37861775101618 182.72369302918102 A 88.75 88.75 0 0 0 201.38084172786466 182.6826057730113 Z" stroke="#e6e6e6" stroke-width="1" opacity="1" class="highcharts-point highcharts-color-9" radius="88.75" plotX="157.07320529159563" plotY="184.23230414184835"></path><path fill="#7da3a1" d="M 112.76687673575674 177.77014809971112 A 177.5 177.5 0 0 1 112.76238470698067 177.85232021449343 L 201.38119235349035 182.67616010724672 A 88.75 88.75 0 0 0 201.38343836787837 182.63507404985558 Z" stroke="#e6e6e6" stroke-width="1" opacity="1" class="highcharts-point highcharts-color-10" radius="88.75" plotX="157.07711937232233" plotY="184.16088999806186"></path><path fill="#71b171" d="M 112.77212100395846 177.67508745257953 A 177.5 177.5 0 0 1 112.76758490139554 177.7572571461646 L 201.38379245069777 182.6286285730823 A 88.75 88.75 0 0 0 201.38606050197922 182.58754372628977 Z" stroke="#e6e6e6" stroke-width="1" opacity="1" class="highcharts-point highcharts-color-0" radius="88.75" plotX="157.08107169361534" plotY="184.08947681490346"></path><path fill="#505160" d="M 112.77741625882575 177.58002963197575 A 177.5 177.5 0 0 1 112.7710800244154 177.6938833227508 L 201.38554001220768 182.59694166137538 A 88.75 88.75 0 0 0 201.38870812941286 182.54001481598786 Z" stroke="#e6e6e6" stroke-width="1" opacity="1" class="highcharts-point highcharts-color-1" radius="88.75" plotX="157.08439450541655" plotY="184.02996657757345"></path><path fill="#e6d72a" d="M 112.7809747539109 177.5166593353713 A 177.5 177.5 0 0 1 112.7745978083089 177.6305107531683 L 201.38729890415445 182.56525537658416 A 88.75 88.75 0 0 0 201.39048737695543 182.50832966768564 Z" stroke="#e6e6e6" stroke-width="1" opacity="1" class="highcharts-point highcharts-color-2" radius="88.75" plotX="157.0870718741264" plotY="183.9823588862854"></path><path fill="#68829E" d="M 112.78455590860452 177.4532903152584 A 177.5 177.5 0 0 1 112.77813825262623 177.5671394455201 L 201.38906912631313 182.53356972276006 A 88.75 88.75 0 0 0 201.39227795430224 182.4766451576292 Z" stroke="#e6e6e6" stroke-width="1" opacity="1" class="highcharts-point highcharts-color-3" radius="88.75" plotX="157.08976623737115" plotY="183.9347516447707"></path><path fill="#98dbc6" d="M 112.78815972244874 177.3899225797396 A 177.5 177.5 0 0 1 112.78170135691477 177.50376940790898 L 201.39085067845738 182.5018847039545 A 88.75 88.75 0 0 0 201.39407986122438 182.4449612898698 Z" stroke="#e6e6e6" stroke-width="1" opacity="1" class="highcharts-point highcharts-color-4" radius="88.75" plotX="157.09247759480633" plotY="183.8871448591163"></path><path fill="#f18d9e" d="M 112.79178619498276 177.32655613691716 A 177.5 177.5 0 0 1 112.78528712071889 177.44040064843753 L 201.39264356035943 182.47020032421878 A 88.75 88.75 0 0 0 201.39589309749138 182.4132780684586 Z" stroke="#e6e6e6" stroke-width="1" opacity="1" class="highcharts-point highcharts-color-5" radius="88.75" plotX="157.09520594608526" plotY="183.83953853540942"></path><path fill="#aebd38" d="M 112.79543532574289 177.2631909948933 A 177.5 177.5 0 0 1 112.78889554358008 177.37703317520828 L 201.39444777179006 182.43851658760414 A 88.75 88.75 0 0 0 201.39771766287146 182.38159549744665 Z" stroke="#e6e6e6" stroke-width="1" opacity="1" class="highcharts-point highcharts-color-6" radius="88.75" plotX="157.09795129085904" plotY="183.79193267973702"></path><path fill="#324851" d="M 112.79910711426257 177.19982716177006 A 177.5 177.5 0 0 1 112.79252662503703 177.3136669963235 L 201.3962633125185 182.40683349816175 A 88.75 88.75 0 0 0 201.3995535571313 182.34991358088502 Z" stroke="#e6e6e6" stroke-width="1" opacity="1" class="highcharts-point highcharts-color-7" radius="88.75" plotX="157.1007136287767" plotY="183.74432729818622"></path><path fill="#5bc8ac" d="M 112.80280156007228 177.1364646456492 A 177.5 177.5 0 0 1 112.7961803646254 177.25030211988528 L 201.3980901823127 182.37515105994265 A 88.75 88.75 0 0 0 201.40140078003614 182.3182323228246 Z" stroke="#e6e6e6" stroke-width="1" opacity="1" class="highcharts-point highcharts-color-8" radius="88.75" plotX="157.10349295948507" plotY="183.69672239684377"></path><path fill="#86ac41" d="M 112.80651866269966 177.07310345463242 A 177.5 177.5 0 0 1 112.79985676187803 177.18693855399567 L 201.399928380939 182.34346927699784 A 88.75 88.75 0 0 0 201.40325933134983 182.2865517273162 Z" stroke="#e6e6e6" stroke-width="1" opacity="1" class="highcharts-point highcharts-color-9" radius="88.75" plotX="157.10628928262867" plotY="183.64911798179673"></path><path fill="#7da3a1" d="M 112.81025842166946 177.0097435968212 A 177.5 177.5 0 0 1 112.80355581632489 177.12357630675643 L 201.40177790816244 182.31178815337822 A 88.75 88.75 0 0 0 201.40512921083473 182.25487179841062 Z" stroke="#e6e6e6" stroke-width="1" opacity="1" class="highcharts-point highcharts-color-10" radius="88.75" plotX="157.10910259785004" plotY="183.60151405913172"></path><path fill="#71b171" d="M 112.81402083650343 176.94638508031693 A 177.5 177.5 0 0 1 112.80727752749294 177.0602153862692 L 201.40363876374647 182.2801076931346 A 88.75 88.75 0 0 0 201.40701041825173 182.22319254015846 Z" stroke="#e6e6e6" stroke-width="1" opacity="1" class="highcharts-point highcharts-color-0" radius="88.75" plotX="157.11193290478946" plotY="183.55391063493565"></path><path fill="#505160" d="M 112.81780590672054 176.8830279132207 A 177.5 177.5 0 0 1 112.81102189490636 176.99685580063544 L 201.4055109474532 182.24842790031772 A 88.75 88.75 0 0 0 201.40890295336027 182.19151395661035 Z" stroke="#e6e6e6" stroke-width="1" opacity="1" class="highcharts-point highcharts-color-1" radius="88.75" plotX="157.114780203085" plotY="183.50630771529504"></path><path fill="#e6d72a" d="M 112.82161363183687 176.81967210363354 A 177.5 177.5 0 0 1 112.81290257455558 176.96517651092026 L 201.40645128727778 182.23258825546014 A 88.75 88.75 0 0 0 201.41080681591842 182.15983605181677 Z" stroke="#e6e6e6" stroke-width="1" opacity="1" class="highcharts-point highcharts-color-2" radius="88.75" plotX="157.1169268271652" plotY="183.47060586034064"></path><path fill="#68829E" d="M 112.82352598983016 176.78799471043732 A 177.5 177.5 0 0 1 112.81478891808638 176.9334975579564 L 201.4073944590432 182.2167487789782 A 88.75 88.75 0 0 0 201.41176299491508 182.14399735521866 Z" stroke="#e6e6e6" stroke-width="1" opacity="1" class="highcharts-point highcharts-color-3" radius="88.75" plotX="157.11836321949417" plotY="183.4468047845481"></path><path fill="#98dbc6" d="M 112.8254440113655 176.75631765965616 A 177.5 177.5 0 0 1 112.81668092543848 176.9018189427565 L 201.40834046271925 182.20090947137825 A 88.75 88.75 0 0 0 201.41272200568275 182.12815882982807 Z" stroke="#e6e6e6" stroke-width="1" opacity="1" class="highcharts-point highcharts-color-4" radius="88.75" plotX="157.11980385945668" plotY="183.42300383831807"></path><path fill="#f18d9e" d="M 112.82736769638149 176.72464095230262 A 177.5 177.5 0 0 1 112.81857859655133 176.87014066633324 L 201.40928929827567 182.1850703331666 A 88.75 88.75 0 0 0 201.41368384819074 182.1123204761513 Z" stroke="#e6e6e6" stroke-width="1" opacity="1" class="highcharts-point highcharts-color-5" radius="88.75" plotX="157.12124874700663" plotY="183.3992030224115"></path><path fill="#aebd38" d="M 112.82929704481666 176.69296458938928 A 177.5 177.5 0 0 1 112.82048193136436 176.83846272969916 L 201.4102409656822 182.1692313648496 A 88.75 88.75 0 0 0 201.41464852240833 182.09648229469462 Z" stroke="#e6e6e6" stroke-width="1" opacity="1" class="highcharts-point highcharts-color-6" radius="88.75" plotX="157.1226978820979" plotY="183.37540233758907"></path><path fill="#324851" d="M 112.8312320566094 176.66128857192865 A 177.5 177.5 0 0 1 112.82239092981666 176.80678513386692 L 201.41119546490833 182.15339256693346 A 88.75 88.75 0 0 0 201.4156160283047 182.08064428596433 Z" stroke="#e6e6e6" stroke-width="1" opacity="1" class="highcharts-point highcharts-color-7" radius="88.75" plotX="157.12415126468412" plotY="183.3516017846117"></path><path fill="#5bc8ac" d="M 112.83317273169774 176.62961290093335 A 177.5 177.5 0 0 1 112.82430559184726 176.77510787984906 L 201.41215279592365 182.13755393992454 A 88.75 88.75 0 0 0 201.41658636584887 182.06480645046668 Z" stroke="#e6e6e6" stroke-width="1" opacity="1" class="highcharts-point highcharts-color-8" radius="88.75" plotX="157.12560889471882" plotY="183.32780136424003"></path><path fill="#86ac41" d="M 112.83511907001977 176.59793757741582 A 177.5 177.5 0 0 1 112.82622591739494 176.7434309686582 L 201.41311295869747 182.12171548432912 A 88.75 88.75 0 0 0 201.4175595350099 182.04896878870792 Z" stroke="#e6e6e6" stroke-width="1" opacity="1" class="highcharts-point highcharts-color-9" radius="88.75" plotX="157.12707077215543" plotY="183.30400107723506"></path><path fill="#7da3a1" d="M 112.83707107151318 176.56626260238866 A 177.5 177.5 0 0 1 112.82815190639829 176.7117544013069 L 201.41407595319913 182.10587720065345 A 88.75 88.75 0 0 0 201.41853553575658 182.03313130119432 Z" stroke="#e6e6e6" stroke-width="1" opacity="1" class="highcharts-point highcharts-color-10" radius="88.75" plotX="157.12853689694725" plotY="183.28020092435736"></path><path fill="#71b171" d="M 112.83902873611561 176.53458797686432 A 177.5 177.5 0 0 1 112.83008355879579 176.68007817880772 L 201.41504177939788 182.09003908940386 A 88.75 88.75 0 0 0 201.4195143680578 182.01729398843216 Z" stroke="#e6e6e6" stroke-width="1" opacity="1" class="highcharts-point highcharts-color-0" radius="88.75" plotX="157.13000726904735" plotY="183.25640090636793"></path><path fill="#505160" d="M 112.84099206376447 176.50291370185533 A 177.5 177.5 0 0 1 112.83202087452563 176.6484023021732 L 201.4160104372628 182.0742011510866 A 88.75 88.75 0 0 0 201.42049603188224 182.00145685092767 Z" stroke="#e6e6e6" stroke-width="1" opacity="1" class="highcharts-point highcharts-color-1" radius="88.75" plotX="157.1314818884088" plotY="183.23260102402733"></path><path fill="#e6d72a" d="M 112.84296105439702 176.47123977837416 A 177.5 177.5 0 0 1 112.83396385352594 176.6167267724159 L 201.41698192676296 182.05836338620796 A 88.75 88.75 0 0 0 201.42148052719853 181.98561988918706 Z" stroke="#e6e6e6" stroke-width="1" opacity="1" class="highcharts-point highcharts-color-2" radius="88.75" plotX="157.1329607549844" plotY="183.20880127809662"></path><path fill="#68829E" d="M 112.84493570795033 176.43956620743327 A 177.5 177.5 0 0 1 112.83591249573459 176.5850515905483 L 201.4179562478673 182.04252579527414 A 88.75 88.75 0 0 0 201.42246785397515 181.96978310371662 Z" stroke="#e6e6e6" stroke-width="1" opacity="1" class="highcharts-point highcharts-color-3" radius="88.75" plotX="157.13444386872692" plotY="183.18500166933623"></path><path fill="#98dbc6" d="M 112.84691602436126 176.40789299004516 A 177.5 177.5 0 0 1 112.83786680108932 176.55337675758295 L 201.41893340054466 182.02668837879148 A 88.75 88.75 0 0 0 201.42345801218062 181.95394649502256 Z" stroke="#e6e6e6" stroke-width="1" opacity="1" class="highcharts-point highcharts-color-4" radius="88.75" plotX="157.13593122958892" plotY="183.16120219850723"></path><path fill="#f18d9e" d="M 112.84890200356651 176.37622012722224 A 177.5 177.5 0 0 1 112.8398267695276 176.52170227453234 L 201.4199133847638 182.01085113726617 A 88.75 88.75 0 0 0 201.42445100178327 181.9381100636111 Z" stroke="#e6e6e6" stroke-width="1" opacity="1" class="highcharts-point highcharts-color-5" radius="88.75" plotX="157.13742283752288" plotY="183.1374028663701"></path><path fill="#aebd38" d="M 112.85089364550257 176.34454761997696 A 177.5 177.5 0 0 1 112.84179240098683 176.49002814240896 L 201.42089620049342 181.99501407120448 A 88.75 88.75 0 0 0 201.42544682275127 181.9222738099885 Z" stroke="#e6e6e6" stroke-width="1" opacity="1" class="highcharts-point highcharts-color-6" radius="88.75" plotX="157.1389186924811" plotY="183.11360367368593"></path><path fill="#324851" d="M 112.85289095010583 176.3128754693218 A 177.5 177.5 0 0 1 112.84376369540414 176.4583543622253 L 201.42188184770208 181.97917718111265 A 88.75 88.75 0 0 0 201.4264454750529 181.9064377346609 Z" stroke="#e6e6e6" stroke-width="1" opacity="1" class="highcharts-point highcharts-color-7" radius="88.75" plotX="157.14041879441578" plotY="183.08980462121514"></path><path fill="#5bc8ac" d="M 112.85489391731241 176.28120367626912 A 177.5 177.5 0 0 1 112.84574065271653 176.4266809349938 L 201.42287032635826 181.96334046749692 A 88.75 88.75 0 0 0 201.42744695865622 181.89060183813456 Z" stroke="#e6e6e6" stroke-width="1" opacity="1" class="highcharts-point highcharts-color-8" radius="88.75" plotX="157.14192314327894" plotY="183.06600570971875"></path><path fill="#86ac41" d="M 112.8569025470583 176.24953224183133 A 177.5 177.5 0 0 1 112.84772327286083 176.39500786172698 L 201.42386163643042 181.9475039308635 A 88.75 88.75 0 0 0 201.42845127352916 181.87476612091567 Z" stroke="#e6e6e6" stroke-width="1" opacity="1" class="highcharts-point highcharts-color-9" radius="88.75" plotX="157.14343173902256" plotY="183.04220693995728"></path><path fill="#7da3a1" d="M 112.85891683927926 176.21786116702086 A 177.5 177.5 0 0 1 112.84971155577364 176.36333514343727 L 201.42485577788682 181.93166757171863 A 88.75 88.75 0 0 0 201.42945841963962 181.85893058351044 Z" stroke="#e6e6e6" stroke-width="1" opacity="1" class="highcharts-point highcharts-color-10" radius="88.75" plotX="157.14494458159834" plotY="183.0184083126917"></path><path fill="#71b171" d="M 112.86093679391092 176.18619045285007 A 177.5 177.5 0 0 1 112.8517055013914 176.33166278113706 L 201.4258527506957 181.9158313905685 A 88.75 88.75 0 0 0 201.43046839695546 181.84309522642502 Z" stroke="#e6e6e6" stroke-width="1" opacity="1" class="highcharts-point highcharts-color-0" radius="88.75" plotX="157.14646167095796" plotY="182.9946098286825"></path><path fill="#505160" d="M 112.86296241088874 176.15452010033133 A 177.5 177.5 0 0 1 112.85370510965038 176.29999077583878 L 201.4268525548252 181.8999953879194 A 88.75 88.75 0 0 0 201.43148120544436 181.82726005016565 Z" stroke="#e6e6e6" stroke-width="1" opacity="1" class="highcharts-point highcharts-color-1" radius="88.75" plotX="157.14798300705291" plotY="182.97081148869069"></path><path fill="#e6d72a" d="M 112.86499369014794 176.12285011047697 A 177.5 177.5 0 0 1 112.8557103804867 176.26831912855488 L 201.42785519024335 181.88415956427744 A 88.75 88.75 0 0 0 201.43249684507396 181.8114250552385 Z" stroke="#e6e6e6" stroke-width="1" opacity="1" class="highcharts-point highcharts-color-2" radius="88.75" plotX="157.1495085898346" plotY="182.9470132934767"></path><path fill="#68829E" d="M 112.8670306316236 176.0911804842994 A 177.5 177.5 0 0 1 112.85772131383618 176.23664784029776 L 201.4288606569181 181.86832392014887 A 88.75 88.75 0 0 0 201.4335153158118 181.7955902421497 Z" stroke="#e6e6e6" stroke-width="1" opacity="1" class="highcharts-point highcharts-color-3" radius="88.75" plotX="157.1510384192542" plotY="182.9232152438015"></path><path fill="#98dbc6" d="M 112.8690732352506 176.05951122281093 A 177.5 177.5 0 0 1 112.85973790963459 176.2049769120798 L 201.4298689548173 181.85248845603988 A 88.75 88.75 0 0 0 201.4345366176253 181.77975561140548 Z" stroke="#e6e6e6" stroke-width="1" opacity="1" class="highcharts-point highcharts-color-4" radius="88.75" plotX="157.15257249526286" plotY="182.89941734042563"></path><path fill="#f18d9e" d="M 112.87112150096368 176.02784232702388 A 177.5 177.5 0 0 1 112.86176016781747 176.17330634491333 L 201.43088008390873 181.83665317245666 A 88.75 88.75 0 0 0 201.43556075048184 181.76392116351195 Z" stroke="#e6e6e6" stroke-width="1" opacity="1" class="highcharts-point highcharts-color-5" radius="88.75" plotX="157.1541108178115" plotY="182.87561958410998"></path><path fill="#aebd38" d="M 112.8731754286973 175.99617379795055 A 177.5 177.5 0 0 1 112.86378808832015 176.14163613981077 L 201.43189404416006 181.82081806990539 A 88.75 88.75 0 0 0 201.43658771434866 181.7480868989753 Z" stroke="#e6e6e6" stroke-width="1" opacity="1" class="highcharts-point highcharts-color-6" radius="88.75" plotX="157.155653386851" plotY="182.85182197561502"></path><path fill="#324851" d="M 112.87523501838587 175.9645056366033 A 177.5 177.5 0 0 1 112.86582167107784 176.1099662977845 L 201.4329108355389 181.80498314889223 A 88.75 88.75 0 0 0 201.43761750919293 181.73225281830165 Z" stroke="#e6e6e6" stroke-width="1" opacity="1" class="highcharts-point highcharts-color-7" radius="88.75" plotX="157.157200202332" plotY="182.8280245157017"></path><path fill="#5bc8ac" d="M 112.87730026996351 175.93283784399432 A 177.5 177.5 0 0 1 112.86786091602553 176.0782968198468 L 201.43393045801275 181.7891484099234 A 88.75 88.75 0 0 0 201.43865013498174 181.71641892199716 Z" stroke="#e6e6e6" stroke-width="1" opacity="1" class="highcharts-point highcharts-color-8" radius="88.75" plotX="157.15875126420508" plotY="182.80422720513053"></path></g><g class="highcharts-markers highcharts-series-0 highcharts-sunburst-series highcharts-color-0" data-z-index="0.1" transform="translate(10,10) scale(1 1)" clip-path="none"></g></g><text x="300" text-anchor="middle" class="highcharts-title" data-z-index="4" style="color: rgb(102, 102, 102); font-size: 12px; fill: rgb(102, 102, 102); text-transform: uppercase;" y="19"></text><text x="300" text-anchor="middle" class="highcharts-subtitle" data-z-index="4" style="color: rgb(102, 102, 102); font-size: 12px; fill: rgb(102, 102, 102);" y="24"></text><text x="10" text-anchor="start" class="highcharts-caption" data-z-index="4" style="color: rgb(102, 102, 102); fill: rgb(102, 102, 102);" y="397"></text><g class="highcharts-data-labels highcharts-series-0 highcharts-sunburst-series highcharts-color-0" data-z-index="6" transform="translate(10,10) scale(1 1)" opacity="1"><text x="404.3331034178585" class="highcharts-data-label highcharts-data-label-color-1" r="0" padding="5" data-z-index="1" transform="translate(0,0) rotate(62.02657712773525 404.3331034178585 129)" style="font-size: 11px; font-weight: bold; color: rgb(102, 102, 102); cursor: pointer; fill: rgb(102, 102, 102);" text-anchor="middle" y="129"><tspan class="highcharts-text-outline" fill="#FFFFFF" stroke="#FFFFFF" stroke-width="2px" stroke-linejoin="round" style="">Cixius<tspan x="404.3331034178585" dy="0"></tspan></tspan>Cixius</text><text x="377.05797258913566" class="highcharts-data-label highcharts-data-label-color-2" r="0" padding="5" data-z-index="1" transform="translate(0,0) rotate(-39.52593688643543 377.05797258913566 293)" style="font-size: 11px; font-weight: bold; color: rgb(102, 102, 102); cursor: pointer; fill: rgb(102, 102, 102);" text-anchor="middle" y="293"><tspan class="highcharts-text-outline" fill="#FFFFFF" stroke="#FFFFFF" stroke-width="2px" stroke-linejoin="round" style="">Tachycixius<tspan x="377.05797258913566" dy="0"></tspan></tspan>Tachycixius</text><text x="322.9582782873142" class="highcharts-data-label highcharts-data-label-color-3" r="0" padding="5" data-z-index="1" transform="translate(0,0) rotate(-13.941894545144137 322.9582782873142 318)" style="font-size: 11px; font-weight: bold; color: rgb(102, 102, 102); cursor: pointer; fill: rgb(102, 102, 102);" text-anchor="middle" y="318"><tspan class="highcharts-text-outline" fill="#FFFFFF" stroke="#FFFFFF" stroke-width="2px" stroke-linejoin="round" style=""><title>Melanoliarus</title>Mel<tspan x="322.9582782873142" dy="0"></tspan></tspan><title>Melanoliarus</title>Mel</text><text x="288.6304387870403" class="highcharts-data-label highcharts-data-label-color-4" r="0" padding="5" data-z-index="1" transform="translate(0,0) rotate(0.5736562046495521 288.6304387870403 321)" style="font-size: 11px; font-weight: bold; color: rgb(102, 102, 102); cursor: pointer; fill: rgb(102, 102, 102);" text-anchor="middle" y="321"><tspan class="highcharts-text-outline" fill="#FFFFFF" stroke="#FFFFFF" stroke-width="2px" stroke-linejoin="round" style=""><tspan x="288.6304387870403" dy="0"></tspan></tspan></text></g><g class="highcharts-legend highcharts-no-tooltip" data-z-index="7" visibility="hidden"><rect fill="none" class="highcharts-legend-box" rx="0" ry="0" stroke="#999999" stroke-width="0" x="0" y="0" width="8" height="8"></rect><g data-z-index="1"><g></g></g></g><g class="highcharts-axis-labels highcharts-xaxis-labels" data-z-index="7"></g><g class="highcharts-axis-labels highcharts-yaxis-labels" data-z-index="7"></g></svg>